<?xml version="1.0" encoding="UTF-8" standalone="no"?>
<!-- Created with Inkscape (http://www.inkscape.org/) -->

<svg
   xmlns:dc="http://purl.org/dc/elements/1.1/"
   xmlns:cc="http://creativecommons.org/ns#"
   xmlns:rdf="http://www.w3.org/1999/02/22-rdf-syntax-ns#"
   xmlns:svg="http://www.w3.org/2000/svg"
   xmlns="http://www.w3.org/2000/svg"
   xmlns:sodipodi="http://sodipodi.sourceforge.net/DTD/sodipodi-0.dtd"
   xmlns:inkscape="http://www.inkscape.org/namespaces/inkscape"
   width="2.5863655"
   height="2.593653"
   viewBox="0 0 0.68430918 0.68623733"
   version="1.1"
   id="svg866"
   inkscape:version="0.92.4 5da689c313, 2019-01-14"
   sodipodi:docname="logo.svg">
  <defs
     id="defs860" />
  <sodipodi:namedview
     id="base"
     pagecolor="#ffffff"
     bordercolor="#666666"
     borderopacity="1.0"
     inkscape:pageopacity="0.0"
     inkscape:pageshadow="2"
     inkscape:zoom="179.2"
     inkscape:cx="0.8485506"
     inkscape:cy="1.1313754"
     inkscape:document-units="mm"
     inkscape:current-layer="layer1"
     showgrid="false"
     inkscape:window-width="1440"
     inkscape:window-height="847"
     inkscape:window-x="0"
     inkscape:window-y="24"
     inkscape:window-maximized="1"
     units="px"
     width="64px"
     fit-margin-top="0"
     fit-margin-left="0"
     fit-margin-right="0"
     fit-margin-bottom="0">
    <inkscape:grid
       type="xygrid"
       id="grid1512"
       originx="0.010016971"
       originy="-296.3068" />
  </sodipodi:namedview>
  <metadata
     id="metadata863">
    <rdf:RDF>
      <cc:Work
         rdf:about="">
        <dc:format>image/svg+xml</dc:format>
        <dc:type
           rdf:resource="http://purl.org/dc/dcmitype/StillImage" />
        <dc:title></dc:title>
      </cc:Work>
    </rdf:RDF>
  </metadata>
  <g
     inkscape:label="Layer 1"
     inkscape:groupmode="layer"
     id="layer1"
     transform="translate(0.01001697,-0.00693803)">
    <g
       transform="matrix(0.08117542,0,0,0.08117542,-1.9527387,-0.8934452)"
       id="g5649"
       inkscape:export-xdpi="1541.3519"
       inkscape:export-ydpi="1541.3519">
      <g
         transform="matrix(1.5140835,0,0,1.5140835,-20.693595,-8.5714769)"
         id="g5470">
        <rect
           style="fill:#000000;fill-opacity:1;stroke:none;stroke-width:0.11280722;stroke-linecap:round;stroke-linejoin:round;stroke-miterlimit:4;stroke-dasharray:none;stroke-opacity:1;paint-order:normal"
           id="rect5430"
           width="1.6867187"
           height="1.2898437"
           x="31.414396"
           y="15.496014"
           rx="0.10341134"
           ry="0.079079255" />
        <path
           style="fill:#000000;fill-opacity:1;stroke:#020002;stroke-width:0.09356093;stroke-linecap:round;stroke-linejoin:round;stroke-miterlimit:4;stroke-dasharray:none;stroke-opacity:1;paint-order:normal"
           d="m 31.181748,15.756861 1.07601,-0.93861 1.07601,0.93861 z"
           id="rect5437"
           inkscape:connector-curvature="0"
           sodipodi:nodetypes="cccc" />
      </g>
      <path
         inkscape:connector-curvature="0"
         id="path5321"
         d="m 24.39386,15.316894 v 0.141077 l -0.250114,0.07235 -0.211357,0.108521 0.01292,0.140043 0.226859,0.06821 0.260449,0.02429 0.05116,0.274402 -0.233577,0.116272 -0.187586,0.145728 0.03824,0.135392 0.236678,0.02532 0.260449,-0.02326 0.09974,0.258899 -0.207739,0.15813 -0.157613,0.177767 0.06304,0.12609 0.236678,-0.01912 0.251665,-0.07028 0.145727,0.236678 -0.1757,0.192753 -0.121956,0.203605 0.08475,0.111621 0.228927,-0.06046 0.234611,-0.116272 0.187585,0.205672 -0.137459,0.222209 -0.08217,0.222725 0.103353,0.09457 0.214458,-0.103353 0.208772,-0.156579 0.222209,0.167431 -0.09405,0.243913 -0.04031,0.234611 0.119373,0.0739 0.191719,-0.141076 0.1757,-0.19172 0.249597,0.123507 -0.04806,0.256832 0.0041,0.238228 0.130226,0.04961 0.163298,-0.172599 0.137459,-0.221692 0.267684,0.07545 0.0011,0.261483 0.04703,0.233577 0.137459,0.02532 0.128675,-0.200505 0.09508,-0.242879 0.275952,0.02532 0.04909,0.257349 0.0894,0.219625 h 0.140044 l 0.0894,-0.219625 0.04806,-0.257349 0.276984,-0.02532 0.09509,0.242879 0.128156,0.200505 0.137459,-0.02532 0.04754,-0.233577 v -0.261483 l 0.267685,-0.07545 0.138493,0.221692 0.162264,0.172599 0.131257,-0.04961 0.0031,-0.238228 -0.04702,-0.256832 0.248563,-0.123507 0.17725,0.19172 0.191719,0.141076 0.118341,-0.0739 -0.03927,-0.234611 -0.09405,-0.243913 0.221692,-0.167431 0.208772,0.156579 0.214458,0.103353 0.10387,-0.09457 -0.0832,-0.222725 -0.136943,-0.222209 0.187584,-0.205672 0.23358,0.116272 0.229441,0.06046 0.08527,-0.111621 -0.122473,-0.203605 -0.175183,-0.192753 0.146243,-0.236678 0.251667,0.07028 0.236677,0.01912 0.06149,-0.12609 -0.15658,-0.177767 -0.207738,-0.15813 0.100251,-0.258899 0.259931,0.02326 0.236678,-0.02532 0.03721,-0.135392 -0.186553,-0.145728 -0.233577,-0.116272 0.05168,-0.274402 0.2589,-0.02429 0.227891,-0.06821 0.01291,-0.140043 -0.210839,-0.108521 -0.250632,-0.07235 v -0.14056 h -0.559654 a 0.21081027,0.21081027 0 0 1 0.0011,0.01912 0.21081027,0.21081027 0 0 1 -0.210322,0.210839 0.21081027,0.21081027 0 0 1 -0.03466,-0.0031 c -0.119845,1.45252 -1.279779,2.623407 -2.734714,2.730065 a 0.21081027,0.21081027 0 0 1 0.0016,0.02325 0.21081027,0.21081027 0 0 1 -0.210838,0.210839 0.21081027,0.21081027 0 0 1 -0.210839,-0.210839 0.21081027,0.21081027 0 0 1 0.0011,-0.02222 c -1.457616,-0.101326 -2.620869,-1.274679 -2.744601,-2.728 a 0.21081027,0.21081027 0 0 1 -0.208772,-0.21084 0.21081027,0.21081027 0 0 1 0.001,-0.0186 z"
         style="color:#000000;font-style:normal;font-variant:normal;font-weight:normal;font-stretch:normal;font-size:medium;line-height:normal;font-family:sans-serif;font-variant-ligatures:normal;font-variant-position:normal;font-variant-caps:normal;font-variant-numeric:normal;font-variant-alternates:normal;font-feature-settings:normal;text-indent:0;text-align:start;text-decoration:none;text-decoration-line:none;text-decoration-style:solid;text-decoration-color:#000000;letter-spacing:normal;word-spacing:normal;text-transform:none;writing-mode:lr-tb;direction:ltr;text-orientation:mixed;dominant-baseline:auto;baseline-shift:baseline;text-anchor:start;white-space:normal;shape-padding:0;clip-rule:nonzero;display:inline;overflow:visible;visibility:visible;opacity:1;isolation:auto;mix-blend-mode:normal;color-interpolation:sRGB;color-interpolation-filters:linearRGB;solid-color:#000000;solid-opacity:1;vector-effect:none;fill:#000000;fill-opacity:1;fill-rule:nonzero;stroke:none;stroke-width:0.05458662;stroke-linecap:butt;stroke-linejoin:miter;stroke-miterlimit:4;stroke-dasharray:none;stroke-dashoffset:0;stroke-opacity:1;color-rendering:auto;image-rendering:auto;shape-rendering:auto;text-rendering:auto;enable-background:accumulate" />
      <path
         sodipodi:nodetypes="ccccccccccccccccccccccccccccc"
         inkscape:connector-curvature="0"
         id="path5315"
         d="m 31.046741,12.242347 -0.103244,-0.09393 -0.214384,0.102401 -0.209025,0.156838 -0.221718,-0.167558 0.09393,-0.244002 0.03949,-0.234695 -0.118475,-0.07335 -0.191818,0.140476 -0.177149,0.193227 -0.248233,-0.124962 0.04682,-0.256979 -0.0031,-0.236669 -0.13117,-0.05106 -0.162198,0.172636 -0.138503,0.222847 -0.267698,-0.07673 v -0.26121 l -0.04795,-0.232437 -0.137375,-0.02567 -0.128067,0.199434 -0.09478,0.243158 -0.112738,-0.0114 -0.08782,0.784055 c 0.750584,0.07458 1.425446,0.460832 1.907985,0.990369 l 0.574585,-0.573398 -0.08683,-0.09568 0.136246,-0.222846 z"
         style="color:#000000;font-style:normal;font-variant:normal;font-weight:normal;font-stretch:normal;font-size:medium;line-height:normal;font-family:sans-serif;font-variant-ligatures:normal;font-variant-position:normal;font-variant-caps:normal;font-variant-numeric:normal;font-variant-alternates:normal;font-feature-settings:normal;text-indent:0;text-align:start;text-decoration:none;text-decoration-line:none;text-decoration-style:solid;text-decoration-color:#000000;letter-spacing:normal;word-spacing:normal;text-transform:none;writing-mode:lr-tb;direction:ltr;text-orientation:mixed;dominant-baseline:auto;baseline-shift:baseline;text-anchor:start;white-space:normal;shape-padding:0;clip-rule:nonzero;display:inline;overflow:visible;visibility:visible;opacity:1;isolation:auto;mix-blend-mode:normal;color-interpolation:sRGB;color-interpolation-filters:linearRGB;solid-color:#000000;solid-opacity:1;vector-effect:none;fill:#f5c306;fill-opacity:1;fill-rule:nonzero;stroke:none;stroke-width:0.05458662;stroke-linecap:butt;stroke-linejoin:miter;stroke-miterlimit:4;stroke-dasharray:none;stroke-dashoffset:0;stroke-opacity:1;color-rendering:auto;image-rendering:auto;shape-rendering:auto;text-rendering:auto;enable-background:accumulate" />
      <path
         inkscape:connector-curvature="0"
         id="rect5412"
         d="m 28.149703,17.748787 c -0.03013,0 -0.06011,0.01154 -0.0832,0.03462 l -0.437697,0.437699 c -0.04617,0.04617 -0.04617,0.120741 0,0.166915 l 0.437697,0.437182 c 0.04618,0.04617 0.120227,0.04617 0.166399,0 l 0.437701,-0.437182 c 0.04617,-0.04617 0.04617,-0.120742 0,-0.166915 l -0.437701,-0.437699 c -0.0231,-0.02309 -0.05307,-0.03462 -0.0832,-0.03462 z m 0.0036,0.337964 a 0.21081027,0.21081027 0 0 1 0.210838,0.21084 0.21081027,0.21081027 0 0 1 -0.210838,0.21084 0.21081027,0.21081027 0 0 1 -0.210839,-0.21084 0.21081027,0.21081027 0 0 1 0.210839,-0.21084 z"
         style="fill:#000000;fill-opacity:1;stroke:none;stroke-width:0.15205114;stroke-linecap:round;stroke-linejoin:round;stroke-miterlimit:4;stroke-dasharray:none;stroke-opacity:1;paint-order:normal" />
      <path
         inkscape:connector-curvature="0"
         id="rect5420"
         d="m 31.094225,14.790312 c -0.03013,0 -0.06063,0.01154 -0.08372,0.03462 l -0.437184,0.437182 c -0.04617,0.04617 -0.04617,0.120741 0,0.166915 l 0.437184,0.437183 c 0.04617,0.04617 0.12074,0.04617 0.166915,0 l 0.437698,-0.437183 c 0.04617,-0.04617 0.04617,-0.120741 0,-0.166915 L 31.17742,14.824932 c -0.0231,-0.02309 -0.05307,-0.03462 -0.0832,-0.03462 z m 0.03772,0.33538 a 0.21081027,0.21081027 0 0 1 0.210322,0.210839 0.21081027,0.21081027 0 0 1 -0.210322,0.21084 0.21081027,0.21081027 0 0 1 -0.210839,-0.21084 0.21081027,0.21081027 0 0 1 0.210839,-0.210839 z"
         style="fill:#000000;fill-opacity:1;stroke:none;stroke-width:0.15205114;stroke-linecap:round;stroke-linejoin:round;stroke-miterlimit:4;stroke-dasharray:none;stroke-opacity:1;paint-order:normal" />
      <path
         inkscape:connector-curvature="0"
         id="rect5422"
         d="m 25.17314,14.790312 c -0.03013,0 -0.06011,0.01154 -0.0832,0.03462 l -0.437699,0.437182 c -0.04617,0.04617 -0.04617,0.120741 0,0.166915 l 0.437699,0.437183 c 0.04617,0.04617 0.120224,0.04617 0.166398,0 l 0.4377,-0.437183 c 0.04617,-0.04617 0.04617,-0.120741 0,-0.166915 l -0.4377,-0.437182 c -0.02309,-0.02309 -0.05307,-0.03462 -0.0832,-0.03462 z m 0.02791,0.33538 a 0.21081027,0.21081027 0 0 1 0.21084,0.210839 0.21081027,0.21081027 0 0 1 -0.21084,0.21084 0.21081027,0.21081027 0 0 1 -0.210839,-0.21084 0.21081027,0.21081027 0 0 1 0.210839,-0.210839 z"
         style="fill:#000000;fill-opacity:1;stroke:none;stroke-width:0.15205114;stroke-linecap:round;stroke-linejoin:round;stroke-miterlimit:4;stroke-dasharray:none;stroke-opacity:1;paint-order:normal" />
      <path
         inkscape:connector-curvature="0"
         id="path5319"
         d="m 31.477664,12.715503 -0.229441,0.06201 -0.23358,0.116271 -0.100769,-0.11007 c -0.190564,0.192102 -0.38146,0.383662 -0.574125,0.573608 0.425831,0.473119 0.706864,1.095578 0.759127,1.770951 a 0.21081027,0.21081027 0 0 1 0.03307,-0.0026 0.21081027,0.21081027 0 0 1 0.209291,0.191203 h 0.559654 v -0.137459 l 0.250632,-0.07131 0.210838,-0.11007 -0.01291,-0.139527 -0.227891,-0.06821 -0.2589,-0.02429 -0.05168,-0.273369 0.233577,-0.116789 0.186552,-0.146244 -0.03721,-0.135392 -0.236678,-0.02429 -0.259932,0.02325 -0.10025,-0.259932 0.207737,-0.15813 0.156581,-0.178284 -0.0615,-0.12454 -0.236678,0.01809 -0.251666,0.0708 -0.146243,-0.235645 0.175183,-0.194303 0.122473,-0.203605 z"
         style="color:#000000;font-style:normal;font-variant:normal;font-weight:normal;font-stretch:normal;font-size:medium;line-height:normal;font-family:sans-serif;font-variant-ligatures:normal;font-variant-position:normal;font-variant-caps:normal;font-variant-numeric:normal;font-variant-alternates:normal;font-feature-settings:normal;text-indent:0;text-align:start;text-decoration:none;text-decoration-line:none;text-decoration-style:solid;text-decoration-color:#000000;letter-spacing:normal;word-spacing:normal;text-transform:none;writing-mode:lr-tb;direction:ltr;text-orientation:mixed;dominant-baseline:auto;baseline-shift:baseline;text-anchor:start;white-space:normal;shape-padding:0;clip-rule:nonzero;display:inline;overflow:visible;visibility:visible;opacity:1;isolation:auto;mix-blend-mode:normal;color-interpolation:sRGB;color-interpolation-filters:linearRGB;solid-color:#000000;solid-opacity:1;vector-effect:none;fill:#f94548;fill-opacity:1;fill-rule:nonzero;stroke:none;stroke-width:0.05458662;stroke-linecap:butt;stroke-linejoin:miter;stroke-miterlimit:4;stroke-dasharray:none;stroke-dashoffset:0;stroke-opacity:1;color-rendering:auto;image-rendering:auto;shape-rendering:auto;text-rendering:auto;enable-background:accumulate" />
      <path
         inkscape:connector-curvature="0"
         id="path5294"
         d="m 28.077355,11.091829 -0.0894,0.220659 -0.04909,0.255798 -0.275953,0.02584 -0.09508,-0.243396 -0.129191,-0.199471 -0.136943,0.02584 -0.04754,0.232544 -5.29e-4,0.260966 -0.267684,0.077 -0.137975,-0.222725 -0.162782,-0.1726 -0.130225,0.05064 -0.0041,0.236678 0.04806,0.257349 -0.249597,0.12454 -0.1757,-0.192753 -0.19172,-0.14056 -0.119889,0.07338 0.04082,0.234611 0.09353,0.243913 -0.221692,0.167431 -0.208773,-0.15658 -0.214457,-0.102319 -0.103353,0.09353 0.08217,0.223243 0.137459,0.222725 -0.187586,0.205672 -0.234611,-0.116272 -0.228926,-0.06201 -0.08475,0.112138 0.121957,0.203605 0.1757,0.194303 -0.146245,0.235128 -0.251147,-0.07028 -0.236678,-0.01809 -0.06305,0.12454 0.157613,0.178284 0.207739,0.157613 -0.09973,0.260449 -0.26045,-0.02377 -0.236678,0.0248 -0.03876,0.135392 0.188102,0.146244 0.233061,0.116789 -0.05064,0.273368 -0.260449,0.02429 -0.22686,0.06821 -0.01292,0.139526 0.211356,0.110071 0.250114,0.07131 v 0.136942 h 0.59738 a 0.21081027,0.21081027 0 0 1 0.203088,-0.190686 c 0.114523,-1.535743 1.390009,-2.773474 2.952791,-2.773474 0.07761,0 0.208378,0.0085 0.284221,0.01447 l 0.08785,-0.783931 -0.16433,-0.01447 -0.0031,-0.02015 -0.04496,-0.235644 -0.0894,-0.220658 z"
         style="color:#000000;font-style:normal;font-variant:normal;font-weight:normal;font-stretch:normal;font-size:medium;line-height:normal;font-family:sans-serif;font-variant-ligatures:normal;font-variant-position:normal;font-variant-caps:normal;font-variant-numeric:normal;font-variant-alternates:normal;font-feature-settings:normal;text-indent:0;text-align:start;text-decoration:none;text-decoration-line:none;text-decoration-style:solid;text-decoration-color:#000000;letter-spacing:normal;word-spacing:normal;text-transform:none;writing-mode:lr-tb;direction:ltr;text-orientation:mixed;dominant-baseline:auto;baseline-shift:baseline;text-anchor:start;white-space:normal;shape-padding:0;clip-rule:nonzero;display:inline;overflow:visible;visibility:visible;opacity:1;isolation:auto;mix-blend-mode:normal;color-interpolation:sRGB;color-interpolation-filters:linearRGB;solid-color:#000000;solid-opacity:1;vector-effect:none;fill:#13a656;fill-opacity:1;fill-rule:nonzero;stroke:none;stroke-width:0.05458662;stroke-linecap:butt;stroke-linejoin:miter;stroke-miterlimit:4;stroke-dasharray:none;stroke-dashoffset:0;stroke-opacity:1;color-rendering:auto;image-rendering:auto;shape-rendering:auto;text-rendering:auto;enable-background:accumulate" />
      <circle
         style="fill:none;fill-opacity:1;stroke:#020002;stroke-width:0.11398079;stroke-linecap:round;stroke-linejoin:round;stroke-miterlimit:4;stroke-dasharray:none;stroke-opacity:1;paint-order:normal"
         id="circle5442"
         cx="25.200838"
         cy="15.336651"
         r="0.21081027" />
      <circle
         r="0.21081027"
         cy="15.336651"
         cx="31.131718"
         id="circle5464"
         style="fill:none;fill-opacity:1;stroke:#020002;stroke-width:0.11398079;stroke-linecap:round;stroke-linejoin:round;stroke-miterlimit:4;stroke-dasharray:none;stroke-opacity:1;paint-order:normal" />
      <circle
         r="0.21081027"
         cy="18.297714"
         cx="28.153284"
         id="circle5466"
         style="fill:none;fill-opacity:1;stroke:#020002;stroke-width:0.11398079;stroke-linecap:round;stroke-linejoin:round;stroke-miterlimit:4;stroke-dasharray:none;stroke-opacity:1;paint-order:normal" />
    </g>
  </g>
</svg>
